<!-- Generated by IcoMoon.io -->
<svg version="1.1" xmlns="http://www.w3.org/2000/svg" width="55" height="32" viewBox="0 0 55 32">
<title>Logo5</title>
<path d="M14.289 23.666c0.131 0.146 0.201 0.329 0.197 0.516 0.006 0.122-0.018 0.244-0.070 0.357s-0.133 0.213-0.235 0.294c-0.223 0.151-0.498 0.241-0.794 0.241-0.033 0-0.065-0.001-0.098-0.003l0.004 0h-1.56v-3.27h1.528c0.027-0.002 0.058-0.003 0.090-0.003 0.281 0 0.542 0.082 0.762 0.223l-0.006-0.003c0.098 0.075 0.177 0.169 0.228 0.275s0.075 0.222 0.068 0.338c0.009 0.18-0.054 0.357-0.178 0.5-0.12 0.129-0.28 0.22-0.459 0.255l-0.005 0.001c0.207 0.034 0.394 0.133 0.527 0.279zM12.459 23.172h0.653c0.148 0.010 0.295-0.028 0.415-0.108 0.048-0.038 0.086-0.087 0.111-0.143l0.001-0.002c0.019-0.042 0.030-0.091 0.030-0.142 0-0.012-0.001-0.023-0.002-0.034l0 0.001c0.001-0.008 0.001-0.018 0.001-0.027 0-0.053-0.011-0.103-0.031-0.148l0.001 0.002c-0.026-0.058-0.063-0.107-0.108-0.146l-0.001-0c-0.106-0.070-0.235-0.112-0.375-0.112-0.019 0-0.037 0.001-0.056 0.002l0.002-0h-0.643v0.858zM13.591 24.426c0.051-0.040 0.092-0.090 0.119-0.147l0.001-0.002c0.022-0.046 0.035-0.1 0.035-0.157 0-0.009-0-0.018-0.001-0.026l0 0.001c0-0.007 0.001-0.015 0.001-0.023 0-0.059-0.013-0.114-0.037-0.164l0.001 0.002c-0.029-0.061-0.071-0.111-0.122-0.15l-0.001-0.001c-0.113-0.075-0.251-0.12-0.4-0.12-0.015 0-0.031 0-0.046 0.001l0.002-0h-0.685v0.9h0.694c0.156 0.008 0.311-0.032 0.438-0.114zM17.413 25.072l-0.85-1.278h-0.32v1.278h-0.731v-3.27h1.384c0.030-0.002 0.065-0.003 0.1-0.003 0.325 0 0.625 0.105 0.868 0.284l-0.004-0.003c0.194 0.178 0.31 0.412 0.329 0.66s-0.061 0.494-0.226 0.693c-0.171 0.176-0.404 0.294-0.66 0.333l0.905 1.307h-0.795zM16.243 23.348h0.598c0.415 0 0.623-0.165 0.623-0.495 0-0.008 0.001-0.017 0.001-0.027 0-0.062-0.013-0.121-0.035-0.174l0.001 0.003c-0.028-0.067-0.069-0.123-0.119-0.169l-0-0c-0.114-0.084-0.257-0.135-0.412-0.135-0.021 0-0.041 0.001-0.061 0.003l0.003-0h-0.605l0.007 0.995zM21.41 24.413h-1.458l-0.258 0.658h-0.766l1.339-3.234h0.829l1.333 3.234h-0.767l-0.252-0.658zM21.214 23.918l-0.533-1.381-0.532 1.38h1.065zM26.412 25.072h-0.725l-1.628-2.224v2.224h-0.724v-3.271h0.724l1.627 2.237v-2.237h0.726v3.27zM30.555 24.289c-0.158 0.252-0.382 0.45-0.647 0.573l-0.009 0.004c-0.316 0.144-0.667 0.214-1.020 0.206h-1.292v-3.27h1.292c0.018-0 0.039-0.001 0.060-0.001 0.347 0 0.678 0.074 0.975 0.208l-0.015-0.006c0.278 0.126 0.507 0.325 0.657 0.571 0.149 0.266 0.227 0.56 0.227 0.858-0.001 0.315-0.085 0.611-0.232 0.866l0.005-0.009zM29.724 24.211c0.197-0.202 0.319-0.477 0.321-0.78v-0c-0.003-0.304-0.125-0.579-0.321-0.78l0 0c-0.226-0.175-0.513-0.281-0.825-0.281-0.029 0-0.059 0.001-0.087 0.003l0.004-0h-0.504v2.117h0.504c0.025 0.002 0.055 0.003 0.084 0.003 0.312 0 0.599-0.106 0.828-0.283l-0.003 0.002zM21.864 3.609s9.369 3.184 9.17 7.792v7.794s-9.362-3.186-9.167-7.794l-0.003-7.792zM39.381 17.371c1.769-1.097 3.816-1.776 5.953-1.975v-2.44c-2.462 0.854-4.55 2.403-5.953 4.414z"></path>
<path d="M38.318 18.106c1.447-2.626 3.959-4.651 7.015-5.661v-7.030s-13.343 4.536-13.061 11.098v11.097s0.595-0.203 1.53-0.583c0-0.355 0-0.713 0.043-1.072 0.276-3.046 1.885-5.869 4.473-7.848z"></path>
<path d="M37.049 22.228c0.079-0.839 0.244-1.611 0.488-2.346l-0.021 0.074c-1.612 1.709-2.587 3.829-2.79 6.063-0.019 0.211-0.030 0.421-0.035 0.639 1.118-0.48 1.961-0.888 2.788-1.323l-0.221 0.106c-0.16-0.681-0.251-1.464-0.251-2.268 0-0.333 0.016-0.662 0.046-0.987l-0.003 0.041zM37.579 22.268c-0.026 0.269-0.041 0.582-0.041 0.899 0 0.712 0.075 1.406 0.218 2.075l-0.012-0.065c3.645-1.964 7.741-4.997 7.583-8.665v-0.32c-2.604 0.263-5.041 1.288-6.936 2.918-0.418 0.923-0.707 1.994-0.81 3.118l-0.003 0.039z"></path>
</svg>
